# xmcd CD database file
#
# Track frame offsets:
#	150
#	9676
#	17665
#	25227
#	32519
#	40920
#	49062
#	60005
#	70672
#	76005
#	81296
#	87961
#	94487
#	98972
#	103364
#	108512
#	113331
#	118207
#	123010
#	126373
#	131887
#	137997
#	143673
#	147574
#	153921
#	160392
#	166285
#	170171
#	173691
#	181872
#	188622
#	191470
#	196401
#	201226
#	206236
#	212575
#	218033
#	227296
#	235999
#	240535
#	248336
#	253328
#	258448
#	265194
#
# Disc length: 3608 seconds
#
# Revision: 0
# Processed by: cddbd v1.5.2PL0 Copyright (c) Steve Scherf et al.
# Submitted via: CDex 1.70beta2
#
DISCID=6a0e162c
DTITLE=EQ - Jazz Standard Bible 2
DYEAR=2013
DGENRE=Jazz
TTITLE0=As Time Goes By
TTITLE1=As Time Goes By (minus one)
TTITLE2=Blue Moon
TTITLE3=Blue Moon (minus one)
TTITLE4=Cheek To Cheek
TTITLE5=Cheek To Cheek (minus one)
TTITLE6=Cry Me a River
TTITLE7=Cry Me a River (minus one)
TTITLE8=Flamingo
TTITLE9=Flamingo (minus one)
TTITLE10=The Gentle Rain
TTITLE11=The Gentle Rain (minus one)
TTITLE12=Gone With the Wind
TTITLE13=Gone With the Wind (minus one)
TTITLE14=Hush-A-Bye
TTITLE15=Hush-A-Bye (minus one)
TTITLE16=Isn't She Lovely
TTITLE17=Isn't She Lovely (minus one)
TTITLE18=Just In Time
TTITLE19=Just In Time (minus one)
TTITLE20=Moon River
TTITLE21=Moon River (minus one)
TTITLE22=My Shining Hour
TTITLE23=My Shining Hour (minus one)
TTITLE24=Sentimental Journey
TTITLE25=Sentimental Journey (minus one)
TTITLE26=The Sidewinder
TTITLE27=The Sidewinder (minus one)
TTITLE28=Smile
TTITLE29=Smile (minus one)
TTITLE30=Sunny
TTITLE31=Sunny (minus one)
TTITLE32=Taking a Chance On Love
TTITLE33=Taking a Chance On Love (minus one)
TTITLE34=Tea For Two
TTITLE35=Tea For Two (minus one)
TTITLE36=That's All
TTITLE37=That's All (minus one)
TTITLE38=Things Ain't What They Used To Be
TTITLE39=Things Ain't What They Used To Be (minus one)
TTITLE40=Watch What Happen
TTITLE41=Watch What Happen (minus one)
TTITLE42=You Are The Sunshine Of My Life
TTITLE43=You Are The Sunshine Of My Life (minus one)
EXTD=YEAR: 2013
EXTT0=
EXTT1=
EXTT2=
EXTT3=
EXTT4=
EXTT5=
EXTT6=
EXTT7=
EXTT8=
EXTT9=
EXTT10=
EXTT11=
EXTT12=
EXTT13=
EXTT14=
EXTT15=
EXTT16=
EXTT17=
EXTT18=
EXTT19=
EXTT20=
EXTT21=
EXTT22=
EXTT23=
EXTT24=
EXTT25=
EXTT26=
EXTT27=
EXTT28=
EXTT29=
EXTT30=
EXTT31=
EXTT32=
EXTT33=
EXTT34=
EXTT35=
EXTT36=
EXTT37=
EXTT38=
EXTT39=
EXTT40=
EXTT41=
EXTT42=
EXTT43=
PLAYORDER=
